<svg width="34" height="21" viewBox="0 0 34 21" fill="none" xmlns="http://www.w3.org/2000/svg">
    <path fill-rule="evenodd" clip-rule="evenodd"
        d="M26.8927 5.5888V9.1915H23.1943V11.714H26.8927V15.3185H29.6658V11.714H33.3633V9.10141H29.6658V5.5888H26.8927ZM10.6238 8.38105V12.4351H16.17C15.8002 14.7774 13.6742 16.4892 10.6238 16.4892C7.29603 16.4892 4.52293 13.6964 4.52293 10.4531C4.52293 7.20988 7.2036 4.41709 10.6238 4.41709C12.1952 4.41709 13.4893 4.86754 14.5985 5.94862L17.5565 3.06574C15.7078 1.44412 13.3969 0.453125 10.6238 0.453125C4.98512 0.453125 0.363281 4.95763 0.363281 10.4531C0.363281 15.9486 4.98512 20.4531 10.6238 20.4531C16.6321 20.4531 20.5145 16.309 20.5145 10.6333C20.5145 9.91258 20.422 9.10177 20.3296 8.38105H10.6238"
        fill="white" />
</svg>