<svg width="27" height="27" viewBox="0 0 27 27" fill="none" xmlns="http://www.w3.org/2000/svg">
    <path fill-rule="evenodd" clip-rule="evenodd"
        d="M9.6528 26.7266H15.0365V18.1351C15.0365 15.87 15.4669 13.6764 18.2705 13.6764C21.0335 13.6764 21.0704 16.2668 21.0704 18.2807V26.7266H26.4551V17.2003C26.4551 12.5248 25.448 8.92755 19.9913 8.92755C17.3699 8.92755 15.6122 10.367 14.893 11.7325H14.8206V9.35945H9.6528V26.7266ZM3.57985 0.726562C5.30244 0.726562 6.70261 2.1289 6.70261 3.85523C6.70261 5.58281 5.30244 6.98541 3.57985 6.98541C1.85272 6.98541 0.455078 5.58281 0.455078 3.85523C0.455078 2.1289 1.85272 0.726562 3.57985 0.726562V0.726562ZM0.884211 26.7266H6.27272V9.35945H0.884211V26.7266Z"
        fill="white" />
</svg>