<svg width="29" height="24" viewBox="0 0 29 24" fill="none" xmlns="http://www.w3.org/2000/svg">
    <path fill-rule="evenodd" clip-rule="evenodd"
        d="M8.89757 23.4531C19.464 23.4531 25.2424 14.6052 25.2424 6.93291C25.2424 6.68149 25.2374 6.43131 25.2259 6.18227C26.3475 5.3628 27.3226 4.34025 28.0918 3.17597C27.0624 3.63817 25.9547 3.94959 24.7927 4.09007C25.9787 3.37135 26.8894 2.2339 27.3188 0.878198C26.2086 1.54326 24.9797 2.02708 23.6712 2.28756C22.6228 1.15894 21.13 0.453125 19.4779 0.453125C16.3053 0.453125 13.7324 3.05348 13.7324 6.25891C13.7324 6.71466 13.7829 7.15773 13.8815 7.5828C9.10724 7.34021 4.87352 5.02965 2.0406 1.51643C1.54679 2.37427 1.26253 3.37135 1.26253 4.43477C1.26253 6.4492 2.2768 8.22748 3.81893 9.26781C2.87668 9.23849 1.99132 8.97677 1.21706 8.54151C1.21583 8.56573 1.21583 8.58996 1.21583 8.61543C1.21583 11.4278 3.19632 13.7754 5.82463 14.3078C5.34213 14.4405 4.83444 14.512 4.31028 14.512C3.94023 14.512 3.58026 14.475 3.23037 14.4073C3.96162 16.7141 6.08234 18.3928 8.59696 18.4401C6.63047 19.9974 4.1537 20.9256 1.46212 20.9256C0.998661 20.9256 0.541365 20.8987 0.0917969 20.8451C2.6342 22.4919 5.65282 23.4531 8.89757 23.4531"
        fill="white" />
</svg>